PathFileType	4	(X/Y/Z)	C:\Users\Basilio\Documents\Thesis Gigler\squatting_fais\c3dfiles\040\SLS_pre_front1\markers_experimental.trc
DataRate	CameraRate	NumFrames	NumMarkers	Units	OrigDataRate	OrigDataStartFrame	OrigNumFrames
200.000000	200.000000	4	62	mm	200.000000	705	1129
Frame#	Time	FHD			LBHD			RBHD			C7			T10			CLAV			LSHO			LUUPA			LMUPA			LDUPA			LLEP			LMEP			LRAD			LUL			LRFIN			RSHO			RUPA1			RMUPA			RDUPA			RLEP			RMEP			RRAD			RUL			RUFIN			LASI			RASI			USACR			LSACR			RSACR			LTHI1			LTHI2			LTHI3			LTHI4			LLFC			LMFC			LTIB1			LTIB2			LTIB3			LTIB4			LLMAL			LMMAL			LHEE			LMT1			LMT2			LMT5			RTHI			RTHI2			RTHI3			RTHI4			RLFC			RMFC			RTIB1			RTIB2			RTIB3			RTIB4			RLMAL			RMMAL			RHEE			RMT1			RMT2			RMT5			*61			
		X1	Y1	Z1	X2	Y2	Z2	X3	Y3	Z3	X4	Y4	Z4	X5	Y5	Z5	X6	Y6	Z6	X7	Y7	Z7	X8	Y8	Z8	X9	Y9	Z9	X10	Y10	Z10	X11	Y11	Z11	X12	Y12	Z12	X13	Y13	Z13	X14	Y14	Z14	X15	Y15	Z15	X16	Y16	Z16	X17	Y17	Z17	X18	Y18	Z18	X19	Y19	Z19	X20	Y20	Z20	X21	Y21	Z21	X22	Y22	Z22	X23	Y23	Z23	X24	Y24	Z24	X25	Y25	Z25	X26	Y26	Z26	X27	Y27	Z27	X28	Y28	Z28	X29	Y29	Z29	X30	Y30	Z30	X31	Y31	Z31	X32	Y32	Z32	X33	Y33	Z33	X34	Y34	Z34	X35	Y35	Z35	X36	Y36	Z36	X37	Y37	Z37	X38	Y38	Z38	X39	Y39	Z39	X40	Y40	Z40	X41	Y41	Z41	X42	Y42	Z42	X43	Y43	Z43	X44	Y44	Z44	X45	Y45	Z45	X46	Y46	Z46	X47	Y47	Z47	X48	Y48	Z48	X49	Y49	Z49	X50	Y50	Z50	X51	Y51	Z51	X52	Y52	Z52	X53	Y53	Z53	X54	Y54	Z54	X55	Y55	Z55	X56	Y56	Z56	X57	Y57	Z57	X58	Y58	Z58	X59	Y59	Z59	X60	Y60	Z60	X61	Y61	Z61	X62	Y62	Z62	

706	3.525	-177.5150756835938	1546.73876953125	-1143.458374023438	-290.7384948730469	1475.752807617188	-1188.687255859375	-336.8609313964844	1422.338134765625	-1059.08251953125	-324.1614685058594	1335.44189453125	-1109.302001953125	-459.3891906738282	1062.255493164063	-1082.449096679688	-213.7680053710938	1247.853149414063	-1124.1611328125	-262.6503295898438	1335.0078125	-1246.187866210938	-110.0515594482422	1310.494750976563	-1325.2724609375	-81.78475189208986	1319.411499023438	-1284.666625976563	-40.5904769897461	1300.700561523438	-1326.056884765625	18.21574974060059	1277.442626953125	-1328.006469726563	8.366379737854006	1220.132568359375	-1297.80224609375	265.9125366210938	1296.82080078125	-1199.181762695313	293.0042724609376	1313.3818359375	-1270.991821289063	359.5128479003907	1321.134521484375	-1176.707275390625	-224.5783233642579	1314.855590820313	-990.3912353515627	-67.84456634521486	1264.656005859375	-916.6783447265627	-42.05622482299805	1287.783935546875	-950.7532958984377	1.346293210983277	1254.846435546875	-924.2598266601565	62.8831253051758	1251.4267578125	-939.0301513671877	53.80746078491212	1190.955688476563	-986.8862304687502	306.3152770996094	1318.688232421875	-1093.512573242188	324.7676391601563	1306.000366210938	-1019.813354492188	401.9323730468751	1332.665405273438	-1099.84765625	-348.7593994140626	851.8720703125002	-1179.251708984375	-332.1788330078126	872.5815429687502	-960.642517089844	-518.4595947265626	910.4062500000002	-1056.97265625	-531.8584594726564	877.1071777343752	-1081.259765625	-526.4284057617189	881.8363037109377	-1025.628295898438	-315.4411621093751	610.8109130859376	-1225.447021484375	-235.2990875244141	585.2681274414064	-1239.998046875	-204.4567565917969	619.4901123046876	-1248.267700195313	-209.6674194335938	534.0762939453126	-1221.765625	-113.0456695556641	459.4783935546876	-1213.260009765625	-109.7587661743164	462.6411743164064	-1086.181640625	-158.6908721923828	259.9601440429688	-1133.438720703125	-238.7326354980469	255.7959442138672	-1174.302490234375	-206.6154327392579	233.8111877441407	-1153.223022460938	-239.753646850586	169.4391479492188	-1105.6572265625	-344.8049926757813	122.7500686645508	-1111.1015625	-302.5375671386719	140.2117462158203	-1031.183471679688	-413.7568664550782	98.63847351074222	-1050.014526367188	-199.2887878417969	57.55404281616212	-1050.530883789063	-205.9407043457032	48.35189056396486	-1096.102416992188	-261.4862670898438	35.58402252197266	-1137.994018554688	-255.6408843994141	657.5749511718751	-877.6643676757815	-195.2077178955079	636.3503417968751	-891.2632446289065	-170.9734191894532	658.9577026367189	-900.0245361328127	-167.9274291992188	558.5073852539064	-901.205993652344	-73.96661376953126	462.9517517089845	-918.7690429687502	-74.28199005126955	460.7139282226564	-1054.921630859375	89.61265563964845	366.5288391113282	-955.321228027344	95.43989562988283	261.2954101562501	-931.956481933594	129.6465301513672	290.0932922363282	-944.1567993164065	172.9353485107422	270.8896789550782	-979.5134887695315	220.4156036376954	152.9164428710938	-962.538024902344	217.2741851806641	176.939697265625	-1049.24755859375	206.780014038086	73.9727020263672	-1015.810668945313	366.9622497558594	228.5926208496094	-1039.295166015625	362.9109191894532	228.8559265136719	-999.5888671875002	357.5338745117188	180.8150329589844	-947.070007324219	nan	nan	nan	
707	3.53	-178.5180816650391	1549.353271484375	-1143.45263671875	-291.6880187988282	1478.363037109375	-1188.750366210938	-337.6133422851563	1424.884155273438	-1059.1591796875	-325.0457763671876	1337.631713867188	-1109.5146484375	-458.6563110351564	1064.430297851563	-1082.356323242188	-213.7005920410157	1250.37744140625	-1123.954223632813	-263.4936218261719	1337.311767578125	-1246.411987304688	-110.5307388305664	1312.918823242188	-1325.351196289063	-82.07888793945314	1321.649291992188	-1284.6728515625	-41.56956481933594	1303.428100585938	-1325.992431640625	17.49930381774903	1280.129760742188	-1327.864379882813	8.623621940612795	1222.509521484375	-1298.635375976563	265.2148132324219	1299.8232421875	-1199.102172851563	292.2260131835938	1316.457153320313	-1270.848022460938	358.9308471679688	1324.349853515625	-1176.5859375	-226.0534362792969	1317.488525390625	-990.4912719726565	-68.58021545410158	1267.32958984375	-916.3494873046877	-42.74729919433594	1290.611450195313	-950.6950683593752	0.4343306422233583	1257.433349609375	-924.003112792969	61.82834625244142	1253.824829101563	-938.7800903320315	52.87247848510744	1193.737426757813	-986.5459594726565	305.3794860839844	1321.740356445313	-1093.385375976563	323.4254760742188	1309.198608398438	-1019.714050292969	400.9166870117189	1335.767944335938	-1099.609130859375	-348.0260009765626	853.5986938476565	-1179.281616210938	-331.4705200195313	873.7297363281252	-960.5718383789065	-517.7108764648439	912.2846679687502	-1056.985229492188	-532.1646728515626	879.9626464843752	-1081.479248046875	-527.5064086914064	884.9230957031252	-1025.952880859375	-315.7038574218751	612.3747558593751	-1225.48583984375	-235.553695678711	586.3682250976564	-1240.161499023438	-204.6613464355469	620.5673828125001	-1248.561889648438	-210.3115692138672	535.0895996093751	-1222.133178710938	-113.9464569091797	459.951629638672	-1213.501586914063	-110.5310668945313	463.2408752441407	-1086.377685546875	-159.1701812744141	260.1770935058594	-1134.009033203125	-239.439926147461	256.1352844238282	-1174.73046875	-206.8276672363282	234.0030059814454	-1153.715087890625	-240.0762481689454	169.8576812744141	-1106.172607421875	-344.9624328613282	122.6856384277344	-1111.314697265625	-302.5900573730469	140.3749694824219	-1031.33642578125	-413.7699279785157	98.57631683349612	-1050.073486328125	-199.3284454345704	57.58559417724611	-1050.760986328125	-205.8804473876954	48.46733856201173	-1096.210693359375	-261.4767150878907	35.45759963989259	-1138.052490234375	-255.6976013183594	659.1757812500001	-877.8430175781252	-195.1856079101563	637.8229370117189	-891.1915283203127	-171.3897399902344	660.3841552734376	-900.243835449219	-168.0989532470703	559.7631835937501	-901.104919433594	-74.43467712402345	464.1321105957032	-918.598571777344	-74.49708557128908	461.6244506835939	-1054.848510742188	89.02928161621095	367.4450988769532	-955.0548095703127	94.44153594970705	261.9123535156251	-931.804870605469	128.7427520751953	290.7678222656251	-944.3022460937502	171.6663055419922	271.6781005859376	-979.3558349609377	219.7218322753907	153.2466430664063	-962.4101562500002	216.4465789794922	178.0429229736328	-1048.845336914063	205.2279968261719	74.63357543945314	-1015.611572265625	366.1231994628907	229.0443725585938	-1038.947875976563	362.3621520996094	228.7601928710938	-999.6802368164065	356.6388549804688	180.8459625244141	-946.9570922851565	nan	nan	nan	
708	3.535	-179.504135131836	1551.852905273438	-1143.440551757813	-292.4738769531251	1480.899047851563	-1188.887817382813	-338.8026733398438	1427.373168945313	-1059.193725585938	-325.6926269531251	1340.013793945313	-1109.679321289063	-458.4475708007814	1066.091552734375	-1082.364868164063	-214.2504425048829	1252.97802734375	-1123.850708007813	-264.0514526367188	1339.529663085938	-1246.478271484375	-111.1771621704102	1315.443725585938	-1325.413208007813	-83.14943695068361	1324.065795898438	-1284.72021484375	-42.19164657592774	1305.836181640625	-1325.9892578125	16.99678039550782	1282.70361328125	-1327.799438476563	7.971567153930666	1225.170776367188	-1298.624267578125	264.3118896484376	1303.01953125	-1198.9423828125	291.7235717773438	1319.447143554688	-1270.691772460938	358.1454772949219	1327.607543945313	-1176.588134765625	-226.7975006103516	1320.306030273438	-990.545104980469	-69.12110137939455	1270.08935546875	-916.3008422851565	-43.87202072143555	1293.365600585938	-950.5881347656252	-0.1635067611932755	1260.411987304688	-924.0904541015627	60.98133087158205	1256.65185546875	-938.5662841796877	51.88984680175783	1195.869506835938	-985.7650146484377	304.5534973144532	1324.691284179688	-1093.280151367188	322.3159179687501	1311.903076171875	-1019.689697265625	400.2315368652345	1338.705200195313	-1099.488647460938	-347.6222229003907	855.7401123046877	-1179.280517578125	-330.6105651855469	876.3933715820315	-960.6845703125002	-517.2745971679689	913.9422607421877	-1057.0556640625	-531.6331176757814	881.833435058594	-1081.471069335938	-526.9541015625001	886.8081054687502	-1026.0107421875	-315.9098510742188	613.8332519531251	-1225.569458007813	-235.9384765625001	587.4807739257814	-1240.395874023438	-205.0325469970704	621.7883300781251	-1248.746704101563	-210.9783325195313	536.2900390625001	-1222.333251953125	-115.6409988403321	460.9952392578126	-1214.065551757813	-111.2457504272461	463.8341674804689	-1086.670166015625	-159.6197357177735	260.4994506835938	-1134.414428710938	-239.9980926513672	256.4798278808594	-1175.128540039063	-207.2773437500001	234.3437652587891	-1154.112548828125	-240.5299530029297	170.7299041748047	-1106.6630859375	-345.1761474609376	122.6955108642578	-1111.4765625	-302.7838439941407	140.6891784667969	-1031.645141601563	-413.8027954101564	98.58973693847659	-1050.181274414063	-199.2472839355469	57.73904418945314	-1050.996826171875	-206.0033416748047	48.43435287475587	-1096.286254882813	-261.4603271484376	35.37577819824219	-1138.109130859375	-255.1375122070313	661.2944335937501	-877.459411621094	-194.7562713623047	639.3696289062501	-891.4566040039065	-170.6688232421875	661.9212646484376	-900.0027465820315	-168.0863800048828	561.6709594726564	-901.0396118164065	-74.78955841064455	465.3090820312501	-918.5527343750002	-75.22527313232423	463.1226501464845	-1054.6240234375	88.52565002441408	368.6020812988282	-954.6779785156252	93.67006683349611	262.7924804687501	-931.6368408203127	128.3462829589844	291.2344055175782	-943.9787597656252	171.074447631836	272.1114196777344	-979.288757324219	218.1275177001954	153.7930603027344	-962.2758789062502	215.4377593994141	178.5901031494141	-1048.689208984375	204.254867553711	74.61252593994142	-1015.553955078125	365.1796264648438	229.1287536621094	-1038.960693359375	361.4645690917969	228.8451538085938	-999.508728027344	355.7072753906251	180.998291015625	-946.7238769531252	nan	nan	nan	
709	3.54	-180.5525360107422	1554.652709960938	-1143.629272460938	-293.2947387695313	1483.368896484375	-1188.973266601563	-339.5603637695313	1430.159057617188	-1059.324951171875	-326.6405944824219	1342.162231445313	-1109.776245117188	-458.5256958007814	1067.827880859375	-1082.382690429688	-215.1342926025391	1255.679565429688	-1123.764526367188	-264.6958923339844	1341.7939453125	-1246.676391601563	-111.8541488647461	1317.459228515625	-1325.365356445313	-83.43008422851564	1326.481323242188	-1284.795288085938	-42.65647888183594	1308.233520507813	-1326.058349609375	16.3739128112793	1285.28564453125	-1327.671264648438	7.439041614532472	1227.918701171875	-1298.61865234375	265.5384521484376	1306.49072265625	-1198.508178710938	291.0049438476563	1322.629272460938	-1270.691772460938	357.6224365234376	1330.660400390625	-1176.274658203125	-227.7171630859376	1322.786376953125	-990.4648437500002	-70.2035598754883	1272.919311523438	-916.3901977539065	-44.89519119262696	1295.987548828125	-950.386413574219	-0.7501309514045718	1263.149047851563	-924.019958496094	60.50395584106447	1258.624267578125	-938.1465454101565	51.29548645019533	1199.077758789063	-986.031677246094	303.9217834472657	1327.53466796875	-1093.2236328125	321.7071533203126	1314.756713867188	-1019.617919921875	399.2778930664064	1341.751831054688	-1099.181884765625	-347.0768432617188	857.6962890625002	-1179.170288085938	-329.8594970703126	877.8389282226565	-960.764343261719	-516.9038085937501	915.9219970703127	-1056.947265625	-529.9108886718751	883.626892089844	-1081.031616210938	-526.3704223632814	888.8276367187502	-1025.933349609375	-316.0875854492188	615.3327636718751	-1225.581298828125	-236.489974975586	588.8842163085939	-1240.556640625	-205.1899871826172	622.7233276367189	-1249.004638671875	-211.5885772705079	537.5650634765626	-1222.39111328125	-116.6085968017578	461.5674743652345	-1214.323364257813	-111.5397109985352	464.4239196777345	-1087.057495117188	-160.6351165771485	261.5430297851563	-1134.8388671875	-240.4359283447266	256.7249145507813	-1175.435913085938	-207.8945617675782	234.6963958740235	-1154.4560546875	-240.7245178222657	170.8384857177735	-1107.090209960938	-345.0373535156251	122.4409484863282	-1111.641235351563	-302.8818969726563	140.681884765625	-1031.9462890625	-413.8220825195314	98.54798889160159	-1050.276611328125	-199.3470153808594	58.11706542968751	-1051.108154296875	-205.9487304687501	48.46567916870119	-1096.301025390625	-261.5409240722657	35.2721061706543	-1138.16259765625	-255.1296691894532	663.0819091796876	-877.720642089844	-194.3373565673829	640.9503784179689	-891.4307250976565	-170.439697265625	663.6566772460939	-900.1224365234377	-167.9115600585938	562.9671020507814	-900.9907226562502	-74.73352050781251	466.8271484375001	-918.4864501953127	-75.20265960693361	464.0939941406251	-1054.698608398438	87.97168731689455	369.3973388671876	-954.5714111328127	92.94123840332033	263.8155517578126	-931.3562011718752	127.4633560180664	291.9290161132813	-943.5767822265627	170.1667938232422	273.1537780761719	-979.2091064453127	217.4173278808594	154.2919464111328	-961.9927978515627	214.4747161865235	179.0626068115235	-1048.419921875	202.8725280761719	75.12722015380861	-1015.100158691406	365.2139282226563	228.9365844726563	-1038.7392578125	360.7836608886719	228.7818603515626	-999.3114013671877	354.7112121582032	181.103500366211	-946.4356079101565	nan	nan	nan	
